<?xml version="1.0" encoding="iso-8859-1"?>
<!-- Generator: Adobe Illustrator 19.0.0, SVG Export Plug-In . SVG Version: 6.00 Build 0)  -->
<svg version="1.1" id="Capa_1" xmlns="http://www.w3.org/2000/svg" xmlns:xlink="http://www.w3.org/1999/xlink" x="0px" y="0px"
	 viewBox="0 0 512 512" style="enable-background:new 0 0 512 512;" xml:space="preserve">
<polygon style="fill:#0F60CF;" points="313.398,332.683 168.204,443.077 113.907,431.379 97.407,414.879 80.608,398.08 
	68.909,343.782 179.303,198.59 227.602,204.29 307.698,284.385 "/>
<polygon style="fill:#0A4EAF;" points="313.398,332.683 168.204,443.077 113.907,431.379 97.407,414.879 267.799,244.487 
	307.698,284.385 "/>
<path style="fill:#0F60CF;" d="M76.708,456.577l-50.897,50.924c-6,5.999-15.6,5.999-21.3,0c-6-5.7-6-15.299,0-21.3l50.899-50.923
	c5.999-6,15.297-6,21.298,0C82.709,441.277,82.709,450.577,76.708,456.577z"/>
<path style="fill:#B7E0F6;" d="M225.202,308.084l-42.598,42.299c-2.701,2.999-6.601,4.499-10.5,4.499c-3.9,0-7.5-1.5-10.498-4.499
	c-6-5.7-6-15.299,0-20.999l42.297-42.597c6-5.7,15.299-5.7,21.3,0C230.902,292.786,230.902,302.085,225.202,308.084z"/>
<path style="fill:#17ACE8;" d="M375.195,279.286c-0.3,4.499-2.701,8.399-6,11.099l-55.797,42.297l-66.897-66.896l-67.199-67.197
	l42.299-55.797c2.699-3.301,6.599-5.7,11.099-6c4.2,0,8.399,1.5,11.399,4.499l63.297,63.298l63.297,63.297
	C373.695,270.886,375.495,275.086,375.195,279.286z"/>
<path style="fill:#1689FC;" d="M375.195,279.286c-0.3,4.499-2.701,8.399-6,11.099l-55.797,42.297l-66.897-66.896l60.896-61.196
	l63.297,63.297C373.695,270.886,375.495,275.086,375.195,279.286z"/>
<path style="fill:#B7E0F6;" d="M511.988,149.993c0,35.698-12.899,68.396-34.198,94.494c-18.599-2.999-32.697-5.4-50.997-8.699
	l-75.294-75.296l-75.296-75.296c-3.3-18.299-5.7-32.397-8.701-50.997C293.898,12.598,326.597,0,361.995,0
	c41.398,0,78.896,16.799,105.896,44.097C495.189,71.097,511.988,108.595,511.988,149.993z"/>
<path style="fill:#17ACE8;" d="M168.204,443.077l-24.299,18.3c-29.398,22.499-66.296,17.398-88.495-4.801
	c-22.201-22.499-27.3-59.096-4.801-88.496l18.299-24.299L168.204,443.077z"/>
<path style="fill:#1689FC;" d="M168.204,443.077l-24.299,18.3c-29.398,22.499-66.296,17.398-88.495-4.801l63.297-62.996
	L168.204,443.077z"/>
<path style="fill:#A4D9F5;" d="M511.988,149.993c0,35.698-12.899,68.396-34.198,94.494c-18.599-2.999-32.697-5.4-50.997-8.699
	l-75.294-75.296L467.892,44.098C495.189,71.097,511.988,108.595,511.988,149.993z"/>
<path style="fill:#0F60CF;" d="M477.789,244.487c-26.099,32.399-65.997,53.998-110.695,55.498h-0.3c-4.199,0-7.798-1.5-10.799-4.501
	L216.503,155.992c-3.001-3.001-4.501-6.901-4.501-11.101c1.5-44.097,22.799-84.296,55.496-110.693l105.295,105.293L477.789,244.487z
	"/>
<path style="fill:#0A4EAF;" d="M477.789,244.487c-26.099,32.399-65.997,53.998-110.695,55.498h-0.3c-4.199,0-7.798-1.5-10.799-4.501
	l-69.597-69.597l86.396-86.396L477.789,244.487z"/>
<g>
</g>
<g>
</g>
<g>
</g>
<g>
</g>
<g>
</g>
<g>
</g>
<g>
</g>
<g>
</g>
<g>
</g>
<g>
</g>
<g>
</g>
<g>
</g>
<g>
</g>
<g>
</g>
<g>
</g>
</svg>
